<svg xmlns="http://www.w3.org/2000/svg" width="26" height="26" xmlns:v="https://vecta.io/nano"><path d="M13 0c7.18 0 13 5.82 13 13s-5.82 13-13 13S0 20.18 0 13 5.82 0 13 0zm5.72 5.72l-2.6 2.6c-1.04-.26-2.08-.52-3.12-.52s-2.08.26-3.12.52h0l-2.6-2.6c-1.04 1.04-2.6 4.68-2.6 8.32S7.8 20.28 13 20.28s8.32-2.6 8.32-6.24-1.56-7.28-2.6-8.32h0zM13 11.96c4.16 0 7.28 1.04 7.28 3.12s-3.12 4.16-7.28 4.16-7.28-2.08-7.28-4.16 3.12-3.12 7.28-3.12zm-3.64 2.08a1.56 1.56 0 0 0 0 3.12 1.56 1.56 0 1 0 0-3.12zm7.28 0a1.56 1.56 0 0 0 0 3.12 1.56 1.56 0 0 0 0-3.12z" fill="#eaeaea" fill-rule="evenodd"/></svg>