<svg xmlns="http://www.w3.org/2000/svg" width="26" height="26" xmlns:v="https://vecta.io/nano"><path d="M13 0c7.18 0 13 5.82 13 13s-5.82 13-13 13S0 20.18 0 13 5.82 0 13 0zm3.019 6.5c-1.802 0-3.286 1.483-3.286 3.286a3.29 3.29 0 0 0 .085.743c-2.638-.132-5.099-1.38-6.765-3.43a3.3 3.3 0 0 0 1.016 4.382 3.26 3.26 0 0 1-1.49-.411v.042c0 1.557 1.108 2.91 2.633 3.218a3.28 3.28 0 0 1-1.482.056c.429 1.334 1.666 2.253 3.067 2.28a6.59 6.59 0 0 1-4.077 1.408c-.261-.001-.522-.016-.781-.047 1.501.963 3.248 1.474 5.031 1.472v.003c6.037 0 9.34-5.002 9.34-9.34 0-.142 0-.283-.01-.424a6.68 6.68 0 0 0 1.638-1.699c-.599.265-1.235.44-1.885.516.685-.41 1.198-1.056 1.443-1.816a6.58 6.58 0 0 1-2.084.797c-.621-.66-1.487-1.035-2.393-1.035z" fill="#eaeaea" fill-rule="evenodd"/></svg>